HIERARCHY
ROOT Pelvis
{

	OFFSET     0.000000     0.000000     0.000000
	CHANNELS 6 Xposition Yposition Zposition Zrotation Xrotation Yrotation
	JOINT LowerBack
	{

		OFFSET    -0.000691     0.176488     0.017766
		CHANNELS 3 Zrotation Xrotation Yrotation
		JOINT Chest
		{

			OFFSET    -0.002754     0.128976    -0.000512
			CHANNELS 3 Zrotation Xrotation Yrotation
			JOINT back3
			{

				OFFSET     0.002471     0.201657    -0.000850
				CHANNELS 3 Zrotation Xrotation Yrotation
				JOINT Neck
				{

					OFFSET     0.001840     0.072570     0.000595
					CHANNELS 3 Zrotation Xrotation Yrotation
					JOINT Head
					{

						OFFSET     0.003323     0.152818     0.030907
						CHANNELS 3 Zrotation Xrotation Yrotation
						JOINT joint7
						{

							OFFSET     0.000612     0.183936     0.002625
							CHANNELS 3 Zrotation Xrotation Yrotation
							End Site
							{
								OFFSET     0.000000     0.000000     0.018310
							}
						}

					}

				}

				JOINT LeftCollar
				{

					OFFSET     0.053456     0.093486     0.002205
					CHANNELS 3 Zrotation Xrotation Yrotation
					JOINT LeftShoulder
					{

						OFFSET     0.112884    -0.020868     0.002319
						CHANNELS 3 Zrotation Xrotation Yrotation
						JOINT LeftElbow
						{

							OFFSET     0.297302     0.003523    -0.020737
							CHANNELS 3 Zrotation Xrotation Yrotation
							JOINT LeftWrist
							{

								OFFSET     0.290007     0.004431    -0.007313
								CHANNELS 3 Zrotation Xrotation Yrotation
								JOINT lf_hand
								{

									OFFSET     0.117001    -0.002589    -0.008771
									CHANNELS 3 Zrotation Xrotation Yrotation
									End Site
									{
										OFFSET     0.000000    -0.009821     0.000000
									}
								}

							}

						}

					}

				}

				JOINT RightCollar
				{

					OFFSET    -0.048666     0.096092     0.000301
					CHANNELS 3 Zrotation Xrotation Yrotation
					JOINT RightShoulder
					{

						OFFSET    -0.115072    -0.022479    -0.001894
						CHANNELS 3 Zrotation Xrotation Yrotation
						JOINT RightElbow
						{

							OFFSET    -0.297072     0.004954    -0.020752
							CHANNELS 3 Zrotation Xrotation Yrotation
							JOINT RightWrist
							{

								OFFSET    -0.292425    -0.005826    -0.023258
								CHANNELS 3 Zrotation Xrotation Yrotation
								JOINT rt_hand
								{

									OFFSET    -0.118185    -0.001061    -0.015047
									CHANNELS 3 Zrotation Xrotation Yrotation
									End Site
									{
										OFFSET     0.000000    -0.009987     0.000000
									}
								}

							}

						}

					}

				}

			}

			JOINT joint13
			{

				OFFSET     0.125914     0.117470     0.000000
				CHANNELS 3 Zrotation Xrotation Yrotation
				End Site
				{
					OFFSET     0.000000     0.000000    -0.017144
				}
			}

			JOINT joint14
			{

				OFFSET    -0.120063     0.114907     0.000000
				CHANNELS 3 Zrotation Xrotation Yrotation
				End Site
				{
					OFFSET     0.000000     0.000000    -0.016479
				}
			}

		}

	}

	JOINT RightHip
	{

		OFFSET    -0.109283    -0.057257     0.000987
		CHANNELS 3 Zrotation Xrotation Yrotation
		JOINT RightKnee
		{

			OFFSET     0.002149    -0.429339     0.038617
			CHANNELS 3 Zrotation Xrotation Yrotation
			JOINT RightAnkle
			{

				OFFSET    -0.001765    -0.522522    -0.077092
				CHANNELS 3 Zrotation Xrotation Yrotation
				JOINT r_ball
				{

					OFFSET    -0.000000    -0.037315     0.142913
					CHANNELS 3 Zrotation Xrotation Yrotation
					End Site
					{
						OFFSET     0.000000     0.000000     0.014648
					}
				}

			}

		}

	}

	JOINT LeftHip
	{

		OFFSET     0.098180    -0.056757     0.003895
		CHANNELS 3 Zrotation Xrotation Yrotation
		JOINT LeftKnee
		{

			OFFSET     0.007057    -0.430531     0.035812
			CHANNELS 3 Zrotation Xrotation Yrotation
			JOINT LeftAnkle
			{

				OFFSET    -0.005475    -0.521755    -0.078136
				CHANNELS 3 Zrotation Xrotation Yrotation
				JOINT lf_ball
				{

					OFFSET     0.000065    -0.036737     0.143337
					CHANNELS 3 Zrotation Xrotation Yrotation
					End Site
					{
						OFFSET     0.000000     0.000000     0.014648
					}
				}

			}

		}

	}

}

MOTION
Frames: 7
Frame Time: 0.033333
   -1.014826     0.938265     1.542118     6.105484     0.268076   -60.100090    -8.983495    -9.838159     7.231913    -1.066995     9.568922     9.027783     0.000000     0.000000     0.000000     0.000000     0.000000     0.000000     6.966142    -0.023798    -2.809147     0.000000     0.000000     0.000000    16.020058    -0.347688    -1.215627   -93.215317    -2.872900    13.186897     1.123170     2.009418   -58.402813    29.018175    39.942226    -8.853872     0.000000     0.000000     0.000000    -7.490196     0.056708    -0.437939    77.539635    23.484072   -12.977028    -2.510208     2.356848    93.843567   -24.372519    33.096275     5.412720     0.000000     0.000000     0.000000     0.000000     0.000000     0.000000     0.000000     0.000000     0.000000     7.434833    11.816016     6.493457     0.000000   -14.866132     0.000000    -9.003169    -7.741592    17.449289     0.000000     0.000000     0.000000    12.607181   -33.616341    15.688787     0.000000    50.098026     0.000000    -4.076967    22.048382    11.658689     0.000000     0.000000     0.000000 
   -1.039703     0.940186     1.588277     6.281007    -0.915128   -66.245697    -7.893133    -9.957603     9.169995    -0.722581    10.079702    11.516358     0.000000     0.000000     0.000000     0.000000     0.000000     0.000000     3.654502     0.997158    -0.997803     0.000000     0.000000     0.000000    14.075571     0.158667     0.657126   -94.971504    -3.587166    20.506205     1.089829     1.988145   -57.456539    28.906301    38.151733    -7.620016     0.000000     0.000000     0.000000    -8.120488    -0.177907     1.221754    72.037361    25.216278    -4.879850    -2.520494     2.356842    94.077126   -25.336090    33.612118     5.629725     0.000000     0.000000     0.000000     0.000000     0.000000     0.000000     0.000000     0.000000     0.000000     3.864848    12.444605     6.187331     0.000000   -10.965899     0.000000    -6.977159    -8.563974    21.953440     0.000000     0.000000     0.000000     7.746846   -33.453690    19.043953     0.000000    40.149120     0.000000     3.942483    20.879320     9.351549     0.000000     0.000000     0.000000 
   -1.065650     0.940632     1.635965     5.898169    -1.570902   -71.869781    -6.608694    -9.982996    11.026013    -0.296361    10.613089    13.866255     0.000000     0.000000     0.000000     0.000000     0.000000     0.000000     1.057815     1.033973    -0.156466     0.000000     0.000000     0.000000    12.246200     0.659238     3.060761   -96.661621    -2.518967    27.090282     1.048212     1.962991   -56.199982    28.674280    35.856747    -6.094738     0.000000     0.000000     0.000000    -8.987417    -0.324348     2.072815    68.967529    24.982199     3.839454    -2.445363     2.364640    92.159286   -26.110428    34.906067     5.943494     0.000000     0.000000     0.000000     0.000000     0.000000     0.000000     0.000000     0.000000     0.000000     0.545676    12.498997     2.537273     0.000000    -6.054255     0.000000    -4.375191   -10.545586    31.007803     0.000000     0.000000     0.000000     6.667816   -28.730108    28.906588     0.000000    24.068819     0.000000     8.980257    21.495722     2.049648     0.000000     0.000000     0.000000 
   -1.092478     0.939850     1.684791     5.327350    -1.902979   -76.520142    -5.217025    -9.964783    12.753074     0.156338    11.165798    16.013317     0.000000     0.000000     0.000000     0.000000     0.000000     0.000000    -1.122010     0.800848     0.378642     0.000000     0.000000     0.000000    11.197121     0.920259     4.648902   -98.776642     1.265038    32.663342     1.030300     1.948648   -55.729843    27.949551    33.808327    -4.756606     0.000000     0.000000     0.000000   -10.050916    -0.459891     2.593303    67.037071    24.199432    13.247066    -2.310053     2.361584    88.978462   -26.647245    36.603031     6.223817     0.000000     0.000000     0.000000     0.000000     0.000000     0.000000     0.000000     0.000000     0.000000    -3.082198    12.052885    -1.060851     0.000000    -1.140351     0.000000    -3.013479   -10.678932    39.638264     0.000000     0.000000     0.000000     5.237356   -23.366121    39.265236     0.000000     7.147868     0.000000     9.644536    22.454374    -6.400448     0.000000     0.000000     0.000000 
   -1.119994     0.937189     1.734362     4.870681    -2.225948   -79.716400    -3.866836    -9.911335    14.267527     0.563417    11.651942    17.912258     0.000000     0.000000     0.000000     0.000000     0.000000     0.000000    -3.087575     0.562704     0.414072     0.000000     0.000000     0.000000    11.285662     0.969637     4.897039  -102.560005     8.588638    37.652660     1.053365     1.968105   -56.309620    26.422220    32.000984    -3.576038     0.000000     0.000000     0.000000   -11.129553    -0.603061     3.013439    65.769814    22.996014    22.082111    -2.150997     2.348425    84.973824   -27.332516    38.389343     6.553717     0.000000     0.000000     0.000000     0.000000     0.000000     0.000000     0.000000     0.000000     0.000000    -7.061677    14.422666    -4.122833     0.000000    -1.979983     0.000000    -0.567430    -9.386346    46.188370     0.000000     0.000000     0.000000     2.679292   -19.524319    44.793015     0.000000    -5.199724     0.000000     7.166245    23.333208   -10.731270     0.000000     0.000000     0.000000 
   -1.148007     0.932592     1.784287     4.797276    -2.865456   -81.007339    -2.650162    -9.892272    15.552088     0.874594    12.032220    19.481247     0.000000     0.000000     0.000000     0.000000     0.000000     0.000000    -4.988095     0.606234    -0.253683     0.000000     0.000000     0.000000    11.998654     0.954220     4.522547  -107.915001    17.760744    42.768749     1.088766     1.988780   -57.393974    24.453819    30.173256    -2.473199     0.000000     0.000000     0.000000   -12.037365    -0.764466     3.578102    64.729782    21.501049    29.008015    -1.968415     2.322381    80.566055   -28.609428    39.972614     7.068930     0.000000     0.000000     0.000000     0.000000     0.000000     0.000000     0.000000     0.000000     0.000000   -10.985450    17.023354   -10.453051     0.000000    -3.505739     0.000000     1.527364    -7.209876    53.734287     0.000000     0.000000     0.000000    -1.010801   -17.449947    43.379349     0.000000   -11.774128     0.000000     5.245086    22.566738    -9.968937     0.000000     0.000000     0.000000 
   -1.176327     0.926978     1.834175     5.200710    -4.076582   -80.540115    -1.719081    -9.938672    16.509951     1.071760    12.242096    20.655855     0.000000     0.000000     0.000000     0.000000     0.000000     0.000000    -6.669791     0.792540    -2.413779     0.000000     0.000000     0.000000    12.820309     0.895355     3.955298  -113.211899    25.946625    47.375763     1.136532     2.017994   -58.772881    22.580214    28.705053    -1.699457     0.000000     0.000000     0.000000   -12.707945    -1.013899     4.484914    64.781601    19.495846    33.003841    -1.740777     2.271927    74.916527   -31.684706    41.271751     8.674980     0.000000     0.000000     0.000000     0.000000     0.000000     0.000000     0.000000     0.000000     0.000000   -14.995520    19.192783   -13.210909     0.000000    -4.338515     0.000000     1.156980    -4.438165    56.391216     0.000000     0.000000     0.000000    -5.068552   -15.754524    38.397167     0.000000   -15.516152     0.000000     4.572112    20.621088    -6.990921     0.000000     0.000000     0.000000 
